<svg width="24" height="24" viewBox="0 0 24 24" fill="none" xmlns="http://www.w3.org/2000/svg">
  <path d="M12 3C10.22 3 8.63 4.06 7.76 5.76L6.34 5.11C7.45 3.11 9.56 2 12 2C14.44 2 16.55 3.11 17.66 5.11L16.24 5.76C15.37 4.06 13.78 3 12 3Z" fill="white"/>
  <path d="M12 21C13.78 21 15.37 19.94 16.24 18.24L17.66 18.89C16.55 20.89 14.44 22 12 22C9.56 22 7.45 20.89 6.34 18.89L7.76 18.24C8.63 19.94 10.22 21 12 21Z" fill="white"/>
  <path d="M6 12C6 10.22 7.06 8.63 8.76 7.76L8.11 6.34C6.11 7.45 5 9.56 5 12C5 14.44 6.11 16.55 8.11 17.66L8.76 16.24C7.06 15.37 6 13.78 6 12Z" fill="white"/>
  <path d="M18 12C18 13.78 16.94 15.37 15.24 16.24L15.89 17.66C17.89 16.55 19 14.44 19 12C19 9.56 17.89 7.45 15.89 6.34L15.24 7.76C16.94 8.63 18 10.22 18 12Z" fill="white"/>
  <circle cx="12" cy="8" r="1.5" fill="white"/>
  <circle cx="12" cy="16" r="1.5" fill="white"/>
  <circle cx="8" cy="12" r="1.5" fill="white"/>
  <circle cx="16" cy="12" r="1.5" fill="white"/>
</svg>
