<svg width="24" height="24" viewBox="0 0 24 24" fill="none" xmlns="http://www.w3.org/2000/svg">
  <path d="M19.14 12.94C19.18 12.63 19.2 12.31 19.2 12C19.2 11.69 19.18 11.37 19.14 11.06L21.16 9.48C21.34 9.34 21.39 9.07 21.27 8.87L19.27 5.37C19.15 5.17 18.89 5.1 18.69 5.17L16.36 6.1C15.86 5.72 15.33 5.4 14.74 5.16L14.4 2.67C14.36 2.45 14.16 2.28 13.92 2.28H9.92C9.68 2.28 9.49 2.45 9.45 2.67L9.11 5.16C8.52 5.4 7.99 5.72 7.49 6.1L5.16 5.17C4.96 5.1 4.7 5.17 4.58 5.37L2.58 8.87C2.46 9.07 2.51 9.34 2.69 9.48L4.71 11.06C4.67 11.37 4.65 11.69 4.65 12C4.65 12.31 4.67 12.63 4.71 12.94L2.69 14.52C2.51 14.66 2.46 14.93 2.58 15.13L4.58 18.63C4.7 18.83 4.96 18.9 5.16 18.83L7.49 17.9C7.99 18.28 8.52 18.6 9.11 18.84L9.45 21.33C9.49 21.55 9.68 21.72 9.92 21.72H13.92C14.16 21.72 14.36 21.55 14.4 21.33L14.74 18.84C15.33 18.6 15.86 18.28 16.36 17.9L18.69 18.83C18.89 18.9 19.15 18.83 19.27 18.63L21.27 15.13C21.39 14.93 21.34 14.66 21.16 14.52L19.14 12.94ZM11.92 15.5C10 15.5 8.42 13.92 8.42 12C8.42 10.08 10 8.5 11.92 8.5C13.84 8.5 15.42 10.08 15.42 12C15.42 13.92 13.84 15.5 11.92 15.5Z" fill="#666666"/>
</svg>
